<svg width="204" height="261" viewBox="0 0 204 261" fill="none" xmlns="http://www.w3.org/2000/svg">
<g clip-path="url(#clip0_13_2)">
<path d="M203.246 19.6452C203.246 23.7509 203.22 27.8826 203.246 32.0403C203.506 64.072 203.757 96.1123 204 128.161C204.052 134.736 203.116 141.258 202.05 147.754C199.892 160.773 196.382 173.428 191.104 185.538C185.358 198.79 177.532 210.614 167.313 220.826C163.855 224.308 160.605 228.024 157.043 231.402C147.813 240.211 136.971 246.474 125.323 251.437C120.07 253.672 114.87 255.985 109.618 258.168C107.042 259.253 104.402 260.181 101.714 260.948C100.856 261.182 99.6861 260.688 98.7241 260.324C90.3779 257.128 82.1617 253.568 74.2836 249.28C60.4513 241.719 47.8151 232.572 36.7129 221.372C23.4786 208.015 14.2744 192.268 8.5023 174.442C4.23133 161.345 1.51728 147.791 0.416141 134.06C0.156136 130.968 0.026133 127.849 0.026133 124.757C-0.00853437 89.971 -0.0171949 55.1849 0.00013882 20.3987C0.00013882 19.8011 0.0261378 19.4373 0.754152 19.2294C4.94023 17.9041 9.07432 16.4749 13.2604 15.1756C16.4585 14.1622 19.6565 13.2007 22.9066 12.3172C28.3927 10.836 33.9048 9.38082 39.4169 8.02957C43.7677 6.99014 48.1271 6.05465 52.4952 5.22311C56.5512 4.46953 60.6073 3.87186 64.6894 3.24821C68.1215 2.70251 71.5535 2.18279 75.0116 1.74103C77.4036 1.42921 79.8477 1.27329 82.2657 1.06541L91.7819 0.415764C93.082 0.337807 94.382 0.233868 95.656 0.207882C99.2701 0.129925 102.858 0.0259857 106.472 0C108.786 0 111.074 0.0779538 113.388 0.207882C116.456 0.389782 119.524 0.545697 122.593 0.883511C127.143 1.37724 131.693 1.92294 136.243 2.59857C140.793 3.27419 145.707 4.05376 150.387 4.98924C156.783 6.26254 163.153 7.61379 169.471 9.14695C173.996 10.2383 178.468 11.6156 182.914 12.9928C189.492 15.0457 196.044 17.2025 202.596 19.3333C202.821 19.4197 203.038 19.524 203.246 19.6452ZM144.095 74.6308C144.095 78.0869 144.069 81.4131 144.095 84.7133C144.173 98.5376 144.277 112.336 144.329 126.16C144.329 126.888 144.537 127.226 145.187 127.538L193.964 150.899L196.252 151.964C196.85 147.625 197.5 143.441 197.968 139.231C198.358 135.775 198.8 132.267 198.8 128.785C198.748 114.467 198.566 100.175 198.436 85.8566C198.332 74.7867 198.254 63.7168 198.202 52.6469C198.176 52.0233 198.124 51.6335 197.396 51.3996C187.022 47.9176 176.57 44.7733 165.909 42.3047C159.565 40.8495 153.204 39.4895 146.825 38.2249C143.185 37.5233 139.545 36.9776 135.879 36.4579C132.603 36.0161 129.327 35.6523 126.025 35.3145C122.723 34.9767 119.862 34.7168 116.768 34.509C114.298 34.3271 111.802 34.2231 109.306 34.1452C107.772 34.0932 106.238 34.1192 104.626 34.1192C104.522 47.6577 104.392 61.1183 104.262 74.6308H144.095ZM5.20024 47.112L6.44826 46.8002C18.478 42.9554 30.6969 39.729 43.057 37.1335C48.7771 35.9122 54.5232 34.8987 60.2953 33.8853C64.4294 33.1837 68.5635 32.638 72.6976 32.1183C76.8316 31.5986 80.4457 31.2867 84.3198 31.0269C89.2599 30.6631 94.2 30.2993 99.1401 30.1693C107.89 29.9393 116.646 30.2953 125.349 31.2348C129.405 31.6765 133.461 31.9884 137.465 32.612C143.263 33.4695 149.035 34.483 154.781 35.5744C166.975 37.8611 178.936 40.9794 190.766 44.5914L198.124 46.9041C198.15 46.5403 198.176 46.2545 198.176 45.9686C198.098 38.6407 198.02 31.2867 197.994 23.9588C197.968 23.2312 197.656 23.0493 197.084 22.8674C193.21 21.6461 189.362 20.3728 185.462 19.1774C171.737 14.9703 157.743 11.6972 143.575 9.38082C136.685 8.26343 129.743 7.4319 122.801 6.73029C117.184 6.18459 111.568 5.76882 105.926 5.71685C99.4781 5.66487 93.004 5.89874 86.5298 6.31451C80.8617 6.67831 75.2023 7.25 69.5515 8.02957C62.4274 9.04301 55.3292 10.1604 48.2831 11.5636C33.9828 14.3961 19.9685 18.3199 6.16225 22.9973C5.43424 23.2572 5.17424 23.595 5.20024 24.3745C5.22624 31.5986 5.20024 38.8486 5.20024 46.0726V47.112ZM21.1125 191.203C21.1657 191.311 21.2093 191.424 21.2425 191.54C24.4073 197.705 28.2066 203.522 32.5788 208.899C39.3298 217.159 47.0363 224.591 55.5372 231.039C69.0835 241.355 83.9558 249.28 99.9721 255.101C101.246 255.543 101.324 255.491 101.298 254.166C101.125 238.193 100.934 222.212 100.726 206.222C100.674 201.233 100.726 196.244 100.726 191.436C87.5958 186.759 76.6496 179.509 68.2255 168.647L21.1125 191.203ZM59.6973 77.7231V79.0744C59.6973 95.4453 59.7233 111.816 59.6713 128.187C59.6399 134.998 60.532 141.781 62.3234 148.352C64.4034 156.096 67.7835 163.19 73.2176 169.167C80.4197 177.092 89.1299 182.731 99.1401 186.421C99.7625 186.641 100.442 186.641 101.064 186.421C103.638 185.46 106.238 184.498 108.734 183.303C117.288 179.145 124.777 173.558 130.471 165.892C137.933 155.862 141.183 144.298 141.417 132.033C141.729 116.65 141.313 101.24 141.209 85.8566V77.7231H59.6973ZM135.827 164.099L184.656 187.149C189.382 177.091 192.967 166.535 195.342 155.68L144.433 131.254C144.069 142.921 141.443 153.835 135.827 164.099ZM66.2234 165.659C63.4934 161.241 61.3873 156.59 60.1133 151.626C58.8393 146.663 57.8773 141.726 56.7592 136.737L9.54232 159.396C11.9604 169.297 15.1324 178.833 19.5265 188.032L66.2234 165.659ZM23.6866 66.6272V79.1783H19.3185C17.6025 79.2043 16.7185 80.0878 16.7185 81.7769V85.7267H4.42023V89.7545H16.6665V96.121H4.42023V100.045H16.7185C16.7185 100.954 16.7445 101.786 16.7185 102.591C16.5105 105.84 17.3165 106.723 20.5925 106.541C21.5546 106.489 22.5166 106.515 23.6346 106.515V119.274H27.5867V106.515C29.4067 106.515 31.0967 106.593 32.7868 106.489C33.8268 106.463 34.1128 106.827 34.0868 107.789C34.0608 111.193 34.0868 114.597 34.0868 118.001V119.248H38.0129V106.515H41.3409C43.213 106.515 44.045 105.684 44.071 103.839C44.071 102.877 44.097 101.89 44.045 100.928C43.993 99.9668 44.279 99.9928 44.981 99.9928C46.7491 100.045 48.5431 100.019 50.3111 100.019H57.1493V96.095H44.149V89.6505H57.0452V85.6747H44.071V81.8808C44.045 80.0358 43.213 79.2043 41.3409 79.1783H37.9349V66.6792H34.0088V79.1263H27.5347V66.6272H23.6866ZM137.439 183.277C125.037 182.575 115.234 193.645 115.234 204.897C115.234 218.098 125.141 227.219 136.789 227.478C149.763 227.764 158.915 217.682 159.539 206.638C160.319 193.203 149.269 182.627 137.439 183.277Z" fill="white" fill-opacity="0.2"/>
<path d="M155.717 93.6783H163.985C164.583 92.0153 165.129 90.4301 165.649 88.9489C163.543 86.7661 161.385 84.5054 159.175 82.2706C159.019 82.0887 158.577 82.0368 158.317 82.0887C156.419 82.4525 154.807 81.673 154.131 80.0618C153.83 79.2995 153.806 78.4558 154.062 77.6774C154.319 76.8989 154.84 76.2348 155.535 75.8002C156.965 74.8907 158.733 75.1506 159.929 76.4239C161.125 77.6971 161.177 79.4642 159.981 81.0493C159.929 81.1013 159.877 81.2052 160.085 81.0753L166.429 87.9095L171.447 85.8047V77.957C169.315 77.5672 167.703 76.5538 167.105 74.345C166.773 73.1564 166.919 71.8851 167.511 70.8025C168.104 69.7198 169.097 68.9115 170.277 68.5502C172.773 67.7966 175.477 69.1739 176.257 71.6165C176.64 72.8092 176.541 74.1038 175.982 75.2249C175.424 76.3459 174.45 77.205 173.267 77.6192C172.695 77.8011 172.565 78.009 172.565 78.5807V85.8826L177.219 87.9875C179.222 85.9346 181.432 83.7258 183.59 81.4391C183.746 81.2832 183.616 80.7375 183.512 80.4516C183.207 79.793 183.116 79.0558 183.251 78.343C183.387 77.6302 183.741 76.9774 184.266 76.4758C184.767 75.9755 185.413 75.644 186.112 75.5275C186.811 75.4111 187.529 75.5155 188.166 75.8262C188.8 76.1356 189.327 76.6275 189.679 77.2388C190.031 77.8501 190.192 78.5527 190.142 79.2563C190.012 81.4391 187.698 82.9982 185.618 82.2187C184.89 81.9588 184.474 82.1147 183.954 82.6344C181.926 84.7393 179.846 86.7921 177.896 88.7411L179.612 93.6783H186.658C187.49 92.483 188.088 91.2877 189.024 90.4301C190.558 89.0269 192.82 89.0269 194.51 90.1443C195.372 90.7109 196.027 91.5408 196.379 92.5101C196.73 93.4795 196.759 94.5364 196.46 95.5233C196.168 96.4696 195.593 97.3035 194.812 97.9123C194.031 98.5211 193.081 98.8755 192.092 98.9274C189.96 98.9794 187.958 97.6801 187.386 95.7052C187.152 94.9256 186.814 94.7697 186.112 94.7957H179.404L177.61 98.6416L184.344 105.164C185.696 104.177 187.048 103.969 188.452 104.8C189.003 105.126 189.453 105.598 189.751 106.165C190.049 106.731 190.184 107.369 190.141 108.008C190.098 108.646 189.878 109.26 189.507 109.781C189.135 110.302 188.626 110.71 188.036 110.959C187.447 111.244 186.785 111.343 186.139 111.241C185.492 111.138 184.893 110.84 184.422 110.387C183.33 109.4 182.94 108.23 183.356 106.775C183.46 106.437 183.46 105.866 183.278 105.658C181.12 103.527 178.91 101.422 176.829 99.4212L172.565 101.266C172.565 103.735 172.539 106.333 172.591 108.932C172.621 109.1 172.691 109.259 172.795 109.395C172.899 109.53 173.034 109.639 173.189 109.711C175.425 110.595 176.803 112.778 176.465 114.961C176.127 117.143 174.125 118.988 171.967 119.066C169.809 119.144 167.547 117.611 166.975 115.194C166.403 112.778 167.989 110.439 170.199 109.737C170.589 109.608 171.005 109.53 171.447 109.426V101.37L166.741 99.5511C164.791 101.552 162.659 103.683 160.553 105.892C160.472 106.013 160.421 106.151 160.403 106.295C160.385 106.439 160.401 106.586 160.449 106.723C161.073 108.386 160.137 110.257 158.629 110.985C157.901 111.321 157.08 111.396 156.303 111.197C155.526 110.998 154.842 110.538 154.365 109.893C153.886 109.255 153.645 108.47 153.683 107.673C153.721 106.876 154.036 106.118 154.573 105.528C155.795 104.177 157.485 103.969 159.149 104.982L159.409 105.164L165.987 98.5636L164.167 94.7957H160.137C158.915 94.7957 157.667 94.8217 156.445 94.7957C155.847 94.7697 155.587 94.9516 155.405 95.5753C154.703 97.836 152.389 99.2912 150.153 98.9274C149.024 98.7343 148 98.1467 147.263 97.2694C146.527 96.3921 146.126 95.2821 146.133 94.137C146.139 92.992 146.552 91.8864 147.298 91.0172C148.043 90.1479 149.074 89.5715 150.205 89.3907C152.389 89.0789 154.729 90.5601 155.405 92.6909L155.717 93.6783ZM171.629 98.0699C172.496 98.0854 173.349 97.8426 174.077 97.3724C174.806 96.9022 175.378 96.2259 175.72 95.4297C176.063 94.6335 176.16 93.7533 176.001 92.9014C175.841 92.0495 175.431 91.2644 174.824 90.646C174.216 90.0276 173.438 89.6041 172.589 89.4292C171.739 89.2543 170.857 89.3361 170.054 89.6641C169.252 89.9921 168.565 90.5515 168.081 91.271C167.598 91.9905 167.339 92.8376 167.339 93.7043C167.332 94.8508 167.78 95.9534 168.583 96.7714C169.387 97.5894 170.482 98.0562 171.629 98.0699Z" fill="white" fill-opacity="0.2"/>
<path d="M160.215 32.1183L157.823 31.5726V18.19C159.071 18.2679 160.033 18.4758 160.709 19.7751C162.113 22.5036 163.725 25.1541 165.259 27.8566L165.805 28.6882V20.0869L168.171 20.6846V34.0412C166.871 33.9633 165.883 33.6255 165.207 32.3262C163.699 29.4158 162.009 26.6353 160.215 23.8289V32.1183Z" fill="white" fill-opacity="0.2"/>
<path d="M91.4698 11.8495H101.064V14.2921H98.9059V25.1541H96.4359V14.3441H93.9139V25.31H91.4698V11.8495Z" fill="white" fill-opacity="0.2"/>
<path d="M170.641 24.0108C168.301 23.1013 168.301 23.1013 168.561 20.7625L175.035 22.6855C175.17 22.7353 175.301 22.7962 175.425 22.8674C177.922 23.621 177.922 23.621 177.922 26.1416V36.9776C177.201 36.8382 176.496 36.6293 175.815 36.3539C175.581 36.25 175.451 35.7043 175.451 35.3665C175.425 32.0403 175.451 28.7142 175.451 25.336L173.137 24.6604V35.3405L172.903 35.4444C170.641 35.1066 170.641 35.1066 170.641 32.8459V24.0108Z" fill="white" fill-opacity="0.2"/>
<path d="M91.1318 25.336C88.4278 25.6479 88.4277 25.6479 87.2577 23.491L85.7237 20.6326C85.5677 20.3728 85.3857 20.1389 85.2297 19.905L84.9437 19.957V25.7778H82.5516V12.4212C84.4497 12.4212 86.3997 12.2393 88.2977 12.4731C89.5978 12.629 90.2738 13.8764 90.4818 15.1496C90.6898 16.4229 90.2738 18.0081 88.9998 18.9695C88.7011 19.1889 88.3885 19.3886 88.0637 19.5672L91.1318 25.336ZM84.9177 17.3844C86.0357 17.2805 87.2057 17.6183 87.8557 16.5269C87.9388 16.32 87.9704 16.096 87.9477 15.8742C87.9251 15.6524 87.8489 15.4395 87.7257 15.2536C86.9457 14.3701 85.9057 14.8118 84.9177 14.8118V17.3844Z" fill="white" fill-opacity="0.2"/>
<path d="M113.05 25.362C112.375 25.4055 111.697 25.3968 111.022 25.336C110.864 25.2905 110.721 25.204 110.606 25.0854C110.492 24.9668 110.411 24.8202 110.372 24.6604C110.086 22.6335 108.838 22.1138 107.044 22.3477C106.897 22.3607 106.749 22.3607 106.602 22.3477C104.288 22.2957 104.262 22.2957 103.43 24.4265C103.222 24.9982 102.936 25.2321 102.338 25.1801C101.74 25.1281 101.194 25.1801 100.492 25.1801L103.638 16.8647C104.184 15.3835 104.73 13.9023 105.328 12.4471C105.458 12.1353 105.952 11.7455 106.212 11.7715C106.94 11.8754 107.928 11.2778 108.318 12.3172C109.93 16.5529 111.49 20.7885 113.076 25.0242C113.092 25.1373 113.083 25.2525 113.05 25.362ZM106.862 15.4355C106.29 16.9686 105.77 18.2939 105.172 19.7751H108.552L106.862 15.4355Z" fill="white" fill-opacity="0.2"/>
<path d="M190.402 41.2133C188.66 41.0054 187.542 40.3297 187.36 38.6147C187.256 37.4713 186.58 36.9776 185.54 36.6918C184.5 36.4059 183.096 35.8862 181.822 35.4704C181.458 36.328 181.12 37.1075 180.73 37.9391L178.207 37.1335C179.846 33.1577 181.484 29.2598 183.096 25.362C184.63 25.6478 185.748 26.0376 186.216 27.8047C187.412 32.0923 188.868 36.276 190.22 40.5116C190.298 40.7195 190.324 40.9274 190.402 41.2133ZM184.37 29.3378C183.772 30.767 183.278 31.9364 182.732 33.1837L186.008 34.3011C185.436 32.612 184.942 31.1048 184.37 29.3378Z" fill="white" fill-opacity="0.2"/>
<path d="M145.135 17.8781L143.653 19.1774C142.535 18.4238 141.625 17.5663 140.533 17.0986C137.777 15.9292 135.203 17.8262 135.333 20.8145C135.463 23.8029 137.101 25.5179 139.805 25.9857C141.235 26.2195 142.327 25.5179 143.445 24.6344L145.083 26.7133C143.107 28.6882 140.871 28.948 138.375 28.1944C134.033 26.8692 131.589 21.724 133.383 17.5663C134.449 14.9937 137.257 13.6425 140.195 14.3441C142.227 14.86 143.991 16.1217 145.135 17.8781Z" fill="white" fill-opacity="0.2"/>
<path d="M49.921 17.0986C49.921 20.6066 50.051 23.9588 49.869 27.3109C49.739 30.1434 46.5149 32.4301 43.7069 31.8844C42.5368 31.6505 41.5228 30.6371 41.4708 29.3898C41.3668 26.1156 41.3148 22.8414 41.2888 19.5412C41.2888 19.3074 41.6528 18.9695 41.8868 18.8656C42.4851 18.6787 43.0926 18.5226 43.7069 18.3979C43.7329 18.8396 43.7589 19.2034 43.7589 19.5932C43.7589 22.1918 43.7589 24.7903 43.7849 27.3889C43.7849 28.1425 43.6809 29.078 44.7729 29.2858C45.2933 29.3704 45.827 29.2748 46.2856 29.0149C46.7443 28.755 47.1003 28.3464 47.2949 27.8566C47.4504 27.3783 47.5294 26.8784 47.5289 26.3755C47.5549 23.9068 47.6069 21.4382 47.5029 18.9955C47.4509 17.8002 47.8149 17.2545 48.985 17.2285L49.921 17.0986Z" fill="white" fill-opacity="0.2"/>
<path d="M19.7604 25.284V32.8459C19.7427 33.2012 19.7514 33.5573 19.7864 33.9113C19.9164 34.7428 19.5524 35.8862 20.9044 36.0161C22.2564 36.146 23.3485 35.1066 23.4265 33.8333C23.5045 32.1443 23.5045 30.4552 23.5305 28.7401C23.5305 27.6227 23.6085 26.5054 23.5045 25.388C23.4005 24.2706 23.7905 23.6989 24.9085 23.595C25.2682 23.5275 25.6241 23.4408 25.9745 23.3351V25.8038C25.9225 28.3763 25.9485 30.9489 25.8185 33.4955C25.6885 36.4579 22.2304 39.2903 19.6304 38.6926C18.4084 38.4068 17.6544 37.7052 17.6023 36.4839C17.4723 33.1837 17.4203 29.9095 17.3943 26.6353C17.4186 26.4921 17.4758 26.3565 17.5615 26.2392C17.6473 26.1219 17.7592 26.0262 17.8884 25.9597C18.4344 25.6998 19.0324 25.5439 19.7604 25.284Z" fill="white" fill-opacity="0.2"/>
<path d="M149.763 29.8575C149.763 25.5179 149.763 21.3082 149.789 17.0726C149.789 16.9167 149.815 16.7348 149.841 16.3969L156.783 17.8262V20.3728L152.285 19.4633V21.646C153.351 21.8799 154.495 22.1658 155.639 22.3477C156.783 22.5296 157.043 22.8934 156.861 23.9068C156.835 24.3308 156.835 24.7561 156.861 25.1801L152.207 24.2446C152.171 25.2496 152.189 26.2558 152.259 27.259C152.285 27.5188 152.675 27.8566 152.987 27.9606C153.876 28.2404 154.79 28.4319 155.717 28.5322C156.731 28.6362 156.965 29.1299 156.861 30.0394C156.835 30.4634 156.835 30.8887 156.861 31.3127L149.763 29.8575Z" fill="white" fill-opacity="0.2"/>
<path d="M81.4336 23.4391V25.9597L74.4395 26.6613C74.4395 26.2975 74.3875 25.9856 74.3875 25.6738C74.3875 21.8539 74.3615 18.008 74.4135 14.1882C74.4135 13.8244 74.6475 13.2267 74.8555 13.2007C77.0135 12.9149 79.1976 12.733 81.4076 12.4991C81.4467 12.6964 81.4728 12.896 81.4856 13.0968C81.5116 15.4874 81.6156 15.1756 79.6136 15.2016C78.7296 15.2276 77.8455 15.3835 76.9095 15.4874V17.6962L81.5116 17.3064C81.5116 17.9041 81.4596 18.3978 81.5116 18.8916C81.5636 19.3853 81.3036 19.957 80.4716 19.983C79.6396 20.0089 78.1315 20.1649 76.9095 20.2688V23.8548L81.4336 23.4391Z" fill="white" fill-opacity="0.2"/>
<path d="M62.0892 14.9158L62.2972 14.7599C64.6113 14.3961 64.6113 14.3961 65.4433 16.6048C66.2753 18.8136 67.0813 20.9445 67.9913 23.3871C68.9534 20.5287 69.8634 17.9561 70.7214 15.3575C71.4754 13.2267 71.4494 13.2267 73.9454 13.3307C73.0874 15.8513 72.2554 18.3719 71.3974 20.8665C70.7734 22.7115 70.0194 24.5045 69.5254 26.3755C69.1874 27.7267 68.1213 27.3109 67.3153 27.5188C66.5093 27.7267 66.5613 26.9471 66.3793 26.4794L62.3492 15.7993C62.2452 15.5134 62.1672 15.2016 62.0892 14.9158Z" fill="white" fill-opacity="0.2"/>
<path d="M112.53 22.8674L114.532 21.698C115 22.2177 115.39 22.7634 115.884 23.1272C116.378 23.491 117.34 23.6729 117.964 23.0493C118.588 22.4256 118.224 21.698 117.704 21.1783C116.586 20.0089 115.338 18.9175 114.246 17.7222C112.608 15.9552 112.686 13.7984 114.324 12.4991C115.962 11.1998 117.522 11.5636 118.926 12.681L120.642 14.0322L118.692 15.7213C118.146 15.3055 117.678 14.7858 117.08 14.526C116.482 14.2661 116.196 14.6299 115.728 14.7079C115.806 15.1496 115.728 15.6953 115.988 15.9552C116.872 16.9426 117.964 17.7742 118.822 18.7876C119.68 19.8011 120.382 20.6066 120.616 21.646C121.292 24.6084 118.926 26.6873 115.936 25.9597C114.298 25.5439 113.258 24.4785 112.53 22.8674Z" fill="white" fill-opacity="0.2"/>
<path d="M58.1371 17.2285L56.4211 19.2034C55.9271 18.9176 55.5111 18.4758 55.0431 18.4498C54.5751 18.4238 53.9771 18.7617 53.4571 18.9695C53.6391 19.4113 53.6651 20.035 54.0031 20.3208C54.8202 20.971 55.6707 21.5781 56.5511 22.1398C58.1112 23.2052 58.8132 24.6344 58.3712 26.5054C57.9291 28.3764 56.6291 29.4677 54.8091 29.9095C52.989 30.3513 51.533 29.8575 50.337 27.8826L52.391 26.1156C52.703 26.4534 52.9371 26.7912 53.2231 27.0511C53.4087 27.1965 53.6219 27.3027 53.8499 27.3633C54.0778 27.4239 54.3157 27.4376 54.5491 27.4036C54.7825 27.3696 55.0065 27.2885 55.2076 27.1654C55.4087 27.0423 55.5827 26.8796 55.7191 26.6873C56.3171 25.8557 55.9531 25.2061 55.2511 24.6604C54.5491 24.1147 53.4051 23.3871 52.547 22.7115C50.545 21.1264 50.311 19.1514 51.845 17.2805C53.379 15.4095 55.7191 15.2016 57.5651 16.7348C57.7639 16.8897 57.9549 17.0545 58.1371 17.2285Z" fill="white" fill-opacity="0.2"/>
<path d="M124.256 23.6469L126.258 22.5815C126.7 23.1012 127.065 23.6469 127.559 24.0367C128.053 24.4265 128.989 24.7903 129.691 24.0887C130.393 23.3871 129.925 22.7115 129.431 22.1917C128.365 21.0224 127.143 19.957 126.128 18.7356C125.52 18.0414 125.083 17.2134 124.854 16.319C124.412 13.9543 126.675 12.2132 129.015 12.9149C130.341 13.3046 131.251 14.1882 132.083 15.3835L130.393 16.8387C129.873 16.371 129.457 15.8512 128.911 15.5654C128.365 15.2796 127.975 15.5914 127.507 15.6174C127.585 16.0591 127.481 16.6568 127.741 16.9426C128.833 18.164 130.107 19.2554 131.147 20.5546C131.787 21.3142 132.217 22.228 132.395 23.2052C132.707 25.9337 130.783 27.5188 128.053 26.9731C126.154 26.5833 125.01 25.388 124.256 23.6469Z" fill="white" fill-opacity="0.2"/>
<path d="M33.9307 22.7634L32.2146 24.8163C31.8795 24.5757 31.5226 24.3669 31.1486 24.1926C30.3946 23.8548 29.7706 24.1667 29.3806 24.8163C28.9906 25.4659 29.3806 25.9077 29.9266 26.2455C30.4726 26.5833 31.3046 27.181 32.0586 27.5448C35.1267 29.1039 34.6327 32.0663 33.2027 33.9113C32.7462 34.4992 32.1737 34.9872 31.5207 35.3448C30.8677 35.7024 30.1481 35.922 29.4066 35.9901C27.9506 36.146 26.9625 35.3925 26.2605 34.0672L28.1326 32.2742C28.7826 32.638 29.3286 33.0278 29.9266 33.1837C30.5246 33.3396 30.7846 33.0537 31.0966 32.8199C32.1626 32.0663 32.1626 31.1048 31.0966 30.3772C30.0306 29.6496 29.3546 29.3378 28.5226 28.7661C27.6906 28.1944 26.5725 26.9731 26.8585 25.4399C27.1445 23.9068 28.3406 22.2437 30.1606 21.6201C31.9806 20.9964 32.8387 21.5681 33.9307 22.7634Z" fill="white" fill-opacity="0.2"/>
<path d="M40.9248 19.0735C40.9248 19.8531 41.0548 20.5547 40.8988 21.2043C40.7428 21.8539 40.2488 21.802 39.8588 21.8799C38.9748 22.0358 38.6628 22.3997 38.6888 23.3611C38.7668 26.0896 38.6108 28.8441 38.7408 31.5726C38.8188 32.8979 38.3248 33.3916 37.1807 33.5215L36.2447 33.6514V22.8934L34.1907 23.3351C34.1647 23.2572 34.1127 23.2052 34.1127 23.1273C33.9827 20.9185 33.9827 20.9185 36.1407 20.3208L40.9248 19.0735Z" fill="white" fill-opacity="0.2"/>
<path d="M145.941 15.6953L148.385 16.1111V29.5457C147.709 29.4418 147.059 29.3898 146.409 29.2339C146.293 29.177 146.192 29.0931 146.115 28.989C146.038 28.885 145.987 28.764 145.967 28.6362C145.941 24.3746 145.941 20.1389 145.941 15.6953Z" fill="white" fill-opacity="0.2"/>
<path d="M16.0163 26.6613V40.0439L13.6763 40.9014V36.7697C13.6763 34.1711 13.7803 31.5726 13.6503 28.974C13.5723 27.7267 13.9883 27.103 15.1583 26.8952L16.0163 26.6613Z" fill="white" fill-opacity="0.2"/>
<path d="M48.8549 205.78V193.203C48.881 191.774 49.219 191.41 50.675 191.384C55.1731 191.384 59.6972 191.436 64.2213 191.358C65.8333 191.332 67.0553 192.164 68.3033 192.918C68.5957 193.127 68.9505 193.23 69.3096 193.211C69.6686 193.192 70.0106 193.052 70.2794 192.814C71.7614 191.696 73.3994 191.41 75.1935 191.41C79.2756 191.436 83.3576 191.358 87.4397 191.41C87.8557 191.41 88.4277 191.956 88.6097 192.372C88.7917 192.788 88.7138 193.593 88.7138 194.191V218.357C88.7398 220.021 88.4017 220.28 86.7897 220.254C82.9416 220.228 79.1196 220.228 75.2975 220.28C74.8295 220.28 74.3355 220.67 73.9195 220.956C72.7234 221.684 71.6574 222.593 70.4094 223.165C69.1614 223.737 67.5493 223.373 66.3533 222.255C65.1573 221.138 63.3112 220.021 61.1012 220.176C57.6171 220.41 54.0811 220.228 50.571 220.254C49.323 220.254 48.907 219.891 48.881 218.565C48.881 214.642 48.907 210.692 48.907 206.768V205.78H48.8549ZM67.8873 205.365H67.9393C67.9393 202.948 67.9393 200.531 67.9133 198.115C67.8873 195.698 66.8213 194.555 64.7413 194.451C60.8932 194.269 57.0191 194.269 53.145 194.269C52.053 194.269 51.663 194.789 51.663 195.958V212.719C51.689 214.668 52.053 214.979 54.0551 214.953C56.7851 214.901 59.5412 214.797 62.2712 214.927C63.7273 215.005 65.1833 215.421 66.5873 215.811C67.9913 216.201 67.8613 216.071 67.8873 215.005C67.9133 211.809 67.8873 208.587 67.8873 205.365ZM70.5914 206.326C70.5914 209.055 70.5654 211.757 70.5914 214.46C70.5914 216.071 70.9294 216.227 72.3854 215.707C73.536 215.311 74.7335 215.066 75.9475 214.979C78.5735 214.875 81.2256 214.953 83.8517 214.953C85.8277 214.953 86.1657 214.642 86.1397 212.719C86.0877 209.522 86.0097 206.3 85.9577 203.078C85.9317 200.609 85.9317 198.115 85.9577 195.62C85.9577 194.659 85.4637 194.217 84.5537 194.217C81.2516 194.217 77.9495 194.165 74.6735 194.243C71.9434 194.321 70.5914 195.828 70.5914 198.53V206.326Z" fill="white" fill-opacity="0.2"/>
<path d="M64.8973 82.9202H136.087V85.6227C136.165 101.032 136.321 116.442 136.295 131.825C136.269 139.907 134.371 147.625 131.017 155.004C126.362 165.139 118.51 172.129 108.916 177.404C106.316 178.833 103.534 179.925 100.804 181.146C100.416 181.277 99.9959 181.277 99.608 181.146C89.7278 177.144 81.1736 171.323 74.6475 162.774C70.7734 157.733 68.4594 151.938 66.8733 145.832C65.5405 140.671 64.8764 135.361 64.8973 130.032C64.9233 114.727 64.8973 99.4471 64.8973 84.1416V82.9202ZM100.674 163.086C100.674 162.436 100.7 162.021 100.674 161.579C100.544 152.146 102.754 143.597 109.696 136.685C115.208 131.176 116.586 124.367 115.156 116.858C113.466 107.789 108.5 100.876 101.064 95.6012C99.972 94.8217 98.7759 94.172 97.5799 93.4184C97.5466 93.5556 97.5206 93.6943 97.5019 93.8342C98.958 100.149 97.8399 106.073 94.9019 111.764C92.8998 115.61 89.9878 118.78 87.2057 122.055C83.3056 126.654 80.0036 131.539 79.3276 137.776C78.7815 142.739 79.6396 147.339 82.7076 151.392C86.1397 155.888 90.7158 158.824 95.7859 161.111C97.3459 161.839 98.958 162.41 100.674 163.086ZM120.538 122.548L120.148 122.678C119.732 124.549 119.368 126.42 118.926 128.265C117.34 134.892 114.818 140.972 109.384 145.468L109.072 145.78C105.978 148.924 104.86 152.77 105.276 157.083C105.432 158.642 105.952 160.072 107.096 161.215C111.178 159.11 117.054 154.537 119.94 151.185C121.838 148.976 123.45 146.585 124.178 143.727C125.426 138.997 124.828 134.372 123.372 129.85C122.566 127.356 121.5 124.991 120.538 122.548Z" fill="white" fill-opacity="0.2"/>
<path d="M152.987 157.655L154.963 158.642C155.093 160.15 156.757 161.813 158.317 161.813C158.9 161.722 159.423 161.404 159.773 160.929C160.293 160.228 160.605 159.344 161.047 158.435L156.679 156.33C155.639 155.81 154.911 153.679 155.379 152.614C155.563 152.311 155.711 151.989 155.821 151.652C156.211 149.937 157.693 149.729 158.993 149.314C159.253 149.236 159.617 149.392 159.903 149.522C160.995 150.041 162.009 150.639 163.127 151.055C164.245 151.47 165.233 152.302 165.363 153.653C165.441 154.251 165.493 154.953 165.259 155.472C164.193 157.837 163.023 160.15 161.879 162.488C161.359 163.554 159.175 164.307 158.083 163.788L154.105 161.839C152.883 161.241 152.233 159.032 152.987 157.655ZM163.049 153.653C163.101 152.874 162.191 152.562 161.359 152.224C160.527 151.886 160.059 151.6 159.409 151.626C158.187 151.652 157.927 152.822 157.719 153.705C157.511 154.589 158.109 155.16 158.993 155.446C159.357 155.583 159.706 155.757 160.033 155.966C161.593 156.72 163.023 155.784 163.049 153.653Z" fill="white" fill-opacity="0.2"/>
<path d="M163.231 162.67L165.259 163.684C165.077 164.853 165.545 165.607 166.637 165.996C167.183 166.204 167.677 166.568 168.223 166.724C168.389 166.792 168.566 166.826 168.745 166.824C168.924 166.823 169.1 166.786 169.265 166.716C169.429 166.646 169.578 166.544 169.703 166.416C169.827 166.288 169.926 166.137 169.991 165.97C170.407 165.165 170.797 164.359 171.239 163.424L166.897 161.319C165.857 160.825 165.103 158.668 165.571 157.629C165.751 157.315 165.899 156.985 166.013 156.642C166.403 154.953 167.885 154.745 169.185 154.303C169.445 154.225 169.809 154.381 170.095 154.511C171.161 155.004 172.201 155.654 173.319 156.044C174.437 156.434 175.425 157.447 175.633 158.824C175.739 159.299 175.712 159.793 175.555 160.254C174.437 162.67 173.267 165.061 172.097 167.452C171.551 168.543 169.393 169.297 168.301 168.777L164.219 166.802C163.023 166.204 162.451 163.866 163.231 162.67ZM173.241 158.954C173.189 157.837 170.615 156.304 169.445 156.616C168.275 156.927 168.093 157.915 167.911 158.746C167.729 159.578 168.275 160.176 169.159 160.41C169.518 160.557 169.866 160.73 170.199 160.929C171.811 161.735 173.293 160.747 173.241 158.954Z" fill="white" fill-opacity="0.2"/>
<path d="M173.605 167.66L175.581 168.621C175.685 170.102 177.636 171.947 179.066 171.791C179.603 171.674 180.077 171.359 180.392 170.908C180.912 170.18 181.224 169.323 181.666 168.413L177.297 166.308C176.257 165.789 175.529 163.658 176.023 162.592C176.193 162.277 176.332 161.946 176.439 161.605C176.829 159.89 178.338 159.734 179.638 159.292C179.872 159.214 180.262 159.37 180.522 159.5C181.614 160.02 182.654 160.643 183.746 161.059C184.838 161.475 185.852 162.28 186.008 163.632C186.06 164.229 186.112 164.931 185.852 165.451C184.812 167.789 183.668 170.076 182.55 172.363C181.952 173.584 179.846 174.312 178.598 173.714L174.723 171.817C173.501 171.22 172.851 169.011 173.605 167.66ZM183.668 163.632C183.72 162.852 182.81 162.54 181.978 162.203C181.146 161.865 180.678 161.579 180.028 161.605C178.806 161.631 178.546 162.8 178.363 163.684C178.181 164.567 178.728 165.139 179.612 165.425C179.982 165.566 180.338 165.74 180.678 165.944C182.212 166.698 183.642 165.763 183.668 163.632Z" fill="white" fill-opacity="0.2"/>
<path d="M149.659 148.534C150.335 146.663 153.039 145.987 155.067 147.261L149.971 157.837L151.245 158.539L150.517 160.098L145.265 157.577L145.967 155.992L147.709 156.72L151.245 149.392L149.659 148.534Z" fill="white" fill-opacity="0.2"/>
<path d="M32.8906 168.855L34.9967 167.893C35.2403 168.216 35.5531 168.48 35.9122 168.665C36.2713 168.851 36.6675 168.954 37.0716 168.967C37.4757 168.979 37.8775 168.901 38.2474 168.737C38.6172 168.574 38.9458 168.33 39.2088 168.023C39.7288 167.4 39.5988 166.126 38.8448 165.113C38.0907 164.099 37.6227 164.281 36.8167 164.697C36.0107 165.113 35.9587 165.061 35.5687 165.295C34.3727 166.022 33.2806 165.944 32.0066 165.373C30.7326 164.801 30.9146 164.021 30.5246 163.268C30.1346 162.514 29.7966 161.891 30.0826 160.929C30.3686 159.968 31.1486 158.824 32.4486 158.409C33.1336 158.188 33.7954 157.9 34.4247 157.551C35.3347 157.005 36.1667 157.057 37.1547 157.499C38.1427 157.941 38.7148 158.461 38.8708 159.604L36.9207 160.513C35.9587 159.006 33.6447 159.006 32.6566 160.435C32.2146 161.085 32.4226 162.488 33.1507 163.32C33.8787 164.151 34.4507 163.996 35.2047 163.58C35.6413 163.407 36.0668 163.207 36.4787 162.982C37.8047 162.021 39.1048 162.384 40.2488 163.19C40.8208 163.606 41.1068 164.463 41.4448 165.139C41.7828 165.815 42.1208 166.516 41.8088 167.452C41.4968 168.387 40.7688 169.427 39.5988 169.79C38.904 170.008 38.24 170.314 37.6227 170.7C36.2707 171.635 35.0487 171.012 33.9047 170.362C33.4887 170.102 33.2807 169.453 32.8906 168.855Z" fill="white" fill-opacity="0.2"/>
<path d="M24.0505 176.625L23.4005 175.221H23.6865C23.7385 174.832 23.8945 174.39 23.7645 174.052C22.5944 171.349 21.3724 168.673 20.1504 165.892C18.8244 166.464 19.1104 165.191 18.5644 164.593L26.7025 160.955C27.0405 161.657 27.3525 162.332 27.6645 163.034L22.2044 164.671C22.8544 166.1 23.3745 167.27 23.9205 168.569C24.5705 167.997 25.6625 168.361 25.7925 167.114C25.8185 166.88 26.5985 166.698 27.0925 166.464C27.5085 167.374 27.8725 168.179 28.3146 169.219L24.5705 169.972L26.2605 173.792C27.3785 173.298 28.4446 172.935 29.3806 172.389C30.3166 171.843 30.4466 171.375 31.0966 170.726L32.1366 173.039L24.0505 176.625Z" fill="white" fill-opacity="0.2"/>
<path d="M48.491 153.289L46.4369 154.199L50.415 163.086C51.741 162.488 51.403 163.762 51.975 164.307L48.231 165.996C47.997 165.477 47.7629 165.035 47.5549 164.593H47.841C47.893 164.229 48.101 163.788 47.971 163.502C46.8009 160.747 45.5789 158.045 44.3829 155.316C42.7189 155.55 42.1988 155.966 42.3288 157.005L40.9768 157.577L39.8848 155.186L49.375 150.951L50.467 153.341L49.089 153.991L48.491 153.289Z" fill="white" fill-opacity="0.2"/>
<path d="M58.7092 161.215L56.8371 162.099L55.9011 160.15L57.7991 159.266C58.1111 159.916 58.3972 160.513 58.7092 161.215Z" fill="white" fill-opacity="0.2"/>
<path d="M38.1947 92.9767C38.1947 94.6138 38.2207 96.2769 38.1947 97.9399C38.1687 99.603 37.3367 100.227 35.9067 100.227H25.7405C24.3105 100.227 23.4525 99.3692 23.4525 97.9399C23.4265 94.5618 23.4265 91.1577 23.4525 87.7796C23.4525 86.3503 24.3105 85.4928 25.7405 85.4928C29.1206 85.4668 32.5266 85.4668 35.9067 85.4928C37.3367 85.4928 38.1947 86.3503 38.1947 87.7536C38.1947 89.1568 38.1947 91.2356 38.1947 92.9767ZM35.3867 93.0546C35.3867 92.0672 35.4127 91.1057 35.3867 90.1183C35.3607 89.1308 34.9447 88.5071 33.8267 88.5071H27.7685C26.7285 88.5071 26.2605 89.0009 26.2605 90.0663C26.2345 92.0672 26.2345 94.0941 26.2605 96.1209C26.2605 97.1604 26.7545 97.6281 27.7945 97.6281C29.8226 97.6454 31.8506 97.6454 33.8787 97.6281C34.9187 97.6281 35.3607 97.1344 35.3867 96.095C35.4127 95.0555 35.3867 94.0681 35.3867 93.0546Z" fill="white" fill-opacity="0.2"/>
<path d="M137.647 186.629C147.813 186.655 156.159 194.788 156.055 205.495C156.028 210.398 154.065 215.092 150.594 218.556C147.122 222.021 142.423 223.976 137.517 223.996C126.804 224.022 118.536 215.551 118.666 204.923C118.744 195.49 126.31 186.421 137.647 186.629ZM135.437 201.259L135.047 200.973C135.385 202.61 134.631 203.546 133.305 204.247C132.967 204.429 132.811 205.079 132.655 205.521C132.499 205.962 131.953 206.508 131.303 206.014C130.653 205.521 130.393 205.313 129.951 204.949C128.833 204.013 128.391 204.039 127.429 205.131C126.466 206.222 126.388 206.144 125.712 204.923C125.674 204.825 125.631 204.73 125.582 204.637C125.088 203.78 124.386 203.312 123.424 203.598C122.462 203.883 122.332 204.689 122.462 205.469C122.774 207.288 123.008 209.159 123.606 210.9C125.426 216.045 129.353 218.851 134.501 219.943C138.453 220.757 142.162 220.003 145.629 217.682C150.439 214.486 152.519 209.886 152.389 204.429C152.311 200.349 150.361 196.893 147.293 194.009C142.847 189.851 136.061 189.202 130.835 191.696C130.081 192.034 129.457 192.632 128.781 193.099L128.911 193.541H130.523C131.511 193.593 132.499 193.593 133.487 193.723C134.475 193.853 136.139 194.217 137.465 194.451C137.682 194.489 137.905 194.443 138.089 194.321C138.843 193.801 139.545 193.827 140.325 194.269C140.754 194.446 141.212 194.543 141.677 194.555C142.873 194.659 144.069 194.685 145.239 194.84C145.603 194.866 145.941 195.178 146.305 195.386C146.019 195.672 145.785 196.088 145.447 196.192C144.017 196.711 142.587 197.543 140.949 196.789C140.574 196.654 140.174 196.61 139.779 196.659C139.077 196.659 138.609 197.049 138.765 197.751C139.051 198.92 138.557 199.518 137.543 199.882C137.313 199.996 137.103 200.145 136.919 200.323L135.437 201.259Z" fill="white" fill-opacity="0.2"/>
<path d="M141.313 214.226C140.923 214.771 140.637 215.473 140.143 215.759C139.649 216.045 139.077 215.603 138.661 215.291C138.304 214.996 137.882 214.79 137.43 214.691C136.978 214.592 136.508 214.601 136.061 214.72C135.307 214.875 134.241 215.343 133.799 214.018C133.591 213.394 133.747 213.004 134.267 212.667L136.347 211.289C136.436 211.228 136.532 211.175 136.633 211.133C137.829 210.666 141.261 212.225 141.313 214.226Z" fill="white" fill-opacity="0.2"/>
<path d="M136.139 207.21C135.073 207.314 134.657 207.054 134.735 206.222C134.787 205.884 134.631 205.521 134.631 205.157C134.672 204.873 134.742 204.595 134.839 204.325C135.099 204.481 135.463 204.559 135.593 204.793C135.947 205.333 136.227 205.919 136.425 206.534C136.503 206.742 136.191 207.106 136.139 207.21Z" fill="white" fill-opacity="0.2"/>
<path d="M132.291 209.237C131.953 209.237 131.459 209.341 131.303 209.185C130.98 208.782 130.733 208.324 130.575 207.833C130.523 207.729 130.757 207.418 130.939 207.366C131.037 207.368 131.133 207.389 131.222 207.43C131.312 207.47 131.392 207.528 131.459 207.599C131.771 208.015 132.057 208.457 132.343 208.899C132.629 209.341 132.317 209.133 132.291 209.237Z" fill="white" fill-opacity="0.2"/>
<path d="M137.985 208.899C138.921 208.821 139.571 208.951 139.857 209.912C138.843 210.302 138.323 209.964 137.985 208.899Z" fill="white" fill-opacity="0.2"/>
</g>
<defs>
<clipPath id="clip0_13_2">
<rect width="204" height="261" fill="white"/>
</clipPath>
</defs>
</svg>
